:version 1.10
:name ASF
:units
  mass 1
  length 1
  angle deg
:documentation
  ASF file generated by Kaydara
:root
  axis xyz
  order  tx ty tz rx ry rz
  position 0 0 0
  orientation 0 0 0
:bonedata
  begin
    id 1
    name RightUpLegDummy
    direction -1 2.30186e-007 8.31532e-007
    length 4.04083
    axis 0 0 0 xyz
  end
  begin
    id 2
    name RightUpLeg
    direction -0.000919234 -0.999985 0.00544864
    length 17.4221
    axis -3.80308 -0.00076134 -0.0523649 xyz
    dof rx ry rz
  end
  begin
    id 3
    name RightLeg
    direction -0.000919271 -0.999984 -0.00555045
    length 17.1239
    axis 4.00314 0.0181274 -0.183583 xyz
    dof rx ry rz
  end
  begin
    id 4
    name RightFoot
    direction -2.57843e-005 -4.04509e-007 1
    length 6.72091
    axis 8.18909e-005 -0.122003 -0.403008 xyz
    dof rx ry rz
  end
  begin
    id 5
    name RightToes
    direction 0.00116825 -0.014069 0.9999
    length 3.85082
    axis 0.000514414 0.540638 -0.356797 xyz
    dof rx ry rz
  end
  begin
    id 6
    name SpineDummy
    direction 0.0168869 0.966876 -0.254689
    length 6.99894
    axis 0 0 0 xyz
  end
  begin
    id 7
    name Spine
    direction -0.0132008 0.999903 0.00446247
    length 11.1999
    axis -0.00148109 0.00725429 0.756411 xyz
    dof rx ry rz
  end
  begin
    id 8
    name Spine1
    direction 0 0 0
    length 0
    axis -0.000934958 0.0245693 1.46543 xyz
    dof rx ry rz
  end
  begin
    id 9
    name HEadDummy
    direction -0.0255732 0.999672 0.00128215
    length 3.43865
    axis -0.000934958 0.0245693 1.46543 xyz
  end
  begin
    id 10
    name HEad
    direction -0.0472656 0.980052 0.19304
    length 5.12695
    axis -0.000934954 0.0245693 1.46543 xyz
    dof rx ry rz
  end
  begin
    id 11
    name LeftShoulder1Dummy
    direction 0.953098 0.301717 -0.023914
    length 3.68488
    axis -0.000934958 0.0245693 1.46543 xyz
  end
  begin
    id 12
    name LeftShoulder1
    direction 0.962466 0.271167 0.0112566
    length 3.13809
    axis -0.000934958 0.0245693 1.46543 xyz
    dof rx ry rz
  end
  begin
    id 13
    name LeftArm
    direction 0.999943 0.00455037 -0.00961766
    length 11.3419
    axis -23.1648 0.685459 1.22814 xyz
    dof rx ry rz
  end
  begin
    id 14
    name LeftForeArm
    direction 0.999332 0.0131969 0.0340885
    length 8.70632
    axis -9.90633 0.618216 0.0826942 xyz
    dof rx ry rz
  end
  begin
    id 15
    name LeftHand
    direction 0.994373 -0.0366703 0.0993905
    length 5.32135
    axis 0.00675269 0.680415 0.445699 xyz
    dof rx ry rz
  end
  begin
    id 16
    name RightShoulderDummy
    direction -0.967298 0.252589 -0.0230903
    length 3.68488
    axis -0.000934958 0.0245693 1.46543 xyz
  end
  begin
    id 17
    name RightShoulder
    direction -0.975062 0.221602 0.0120823
    length 3.13809
    axis 0.216257 0.0246515 1.45863 xyz
    dof rx ry rz
  end
  begin
    id 18
    name RightArm
    direction -0.99886 -0.00851186 -0.0469687
    length 10.3947
    axis -23.196 0.23503 -0.532632 xyz
    dof rx ry rz
  end
  begin
    id 19
    name RightForeArm
    direction -0.99909 0.00114866 0.0426317
    length 8.68355
    axis -9.91764 -0.134943 0.610517 xyz
    dof rx ry rz
  end
  begin
    id 20
    name RightHand
    direction -0.992888 -0.0489538 0.10852
    length 5.28593
    axis -0.00275396 -0.197403 0.246414 xyz
    dof rx ry rz
  end
  begin
    id 21
    name LeftUpLegDummy
    direction 1 -2.30186e-007 -8.31532e-007
    length 4.04083
    axis 0 0 0 xyz
  end
  begin
    id 22
    name LeftUpLeg
    direction -0.000920097 -1 2.79241e-006
    length 17.4221
    axis -3.48782 0.00143434 -0.0532288 xyz
    dof rx ry rz
  end
  begin
    id 23
    name LeftLeg
    direction -0.000920097 -1 2.7912e-006
    length 17.1239
    axis 3.68162 -0.00806512 -0.0529896 xyz
    dof rx ry rz
  end
  begin
    id 24
    name LeftFoot
    direction -2.57845e-005 -3.987e-007 1
    length 6.72091
    axis 3.02372e-005 -0.00147829 -0.214229 xyz
    dof rx ry rz
  end
  begin
    id 25
    name LeftToes
    direction 0.00813577 -0.00488255 0.999955
    length 3.85048
    axis 3.89895e-005 -0.0014783 -0.214229 xyz
    dof rx ry rz
  end
:hierarchy
  begin
    root RightUpLegDummy SpineDummy LeftUpLegDummy
    RightUpLegDummy RightUpLeg
    RightUpLeg RightLeg
    RightLeg RightFoot
    RightFoot RightToes
    SpineDummy Spine
    Spine Spine1
    Spine1 HEadDummy LeftShoulder1Dummy RightShoulderDummy
    HEadDummy HEad
    LeftShoulder1Dummy LeftShoulder1
    LeftShoulder1 LeftArm
    LeftArm LeftForeArm
    LeftForeArm LeftHand
    RightShoulderDummy RightShoulder
    RightShoulder RightArm
    RightArm RightForeArm
    RightForeArm RightHand
    LeftUpLegDummy LeftUpLeg
    LeftUpLeg LeftLeg
    LeftLeg LeftFoot
    LeftFoot LeftToes
  end

:SAMPLES-PER-SECOND 30
:FULLY-SPECIFIED
:DEGREES
23
root  -46.1509 34.6923 1.84448 -176.409 81.45 174.207
RightUpLeg  -13.491 -17.6841 -6.57387
RightLeg  6.82235 0.604943 0.0342814
RightFoot  11.2928 0.0263729 0.264317
RightToes  -33.3144 -0.167398 -0.274329
Spine  -1.16085 1.42571 -1.54922
Spine1  -2.46376 2.89381 -2.49596
HEad  -58.0381 0.287881 -3.82056
LeftShoulder1  -1.94126e-019 -3.10601e-018 -2.51263e-017
LeftArm  -17.5639 19.2663 -73.1059
LeftForeArm  34.748 -12.2798 -2.08374
LeftHand  -0.471836 -0.752119 9.04154
RightShoulder  -4.96962e-017 0 -2.36833e-017
RightArm  -35.3999 -19.4802 77.5139
RightForeArm  59.6849 12.3232 1.43855
RightHand  -0.395456 -0.647885 -9.66344
LeftUpLeg  -11.4374 7.77439 -2.59984
LeftLeg  14.0044 20.0727 3.57515
LeftFoot  0.542653 -0.000808956 0.332447
LeftToes  -15.9268 1.49739e-006 1.00523e-007
24
root  -46.0533 34.7495 2.23103 -174.989 81.5835 175.159
RightUpLeg  -14.5056 -18.5992 -5.5435
RightLeg  7.79115 1.64899 0.119539
RightFoot  10.7928 0.00727624 0.448217
RightToes  -32.7085 -0.16301 -0.270343
Spine  -1.23698 1.30101 -1.37952
Spine1  -2.60335 2.64649 -2.15151
HEad  -60.4689 1.24742 -4.14718
LeftShoulder1  -1.94126e-019 -3.10601e-018 -2.51263e-017
LeftArm  -18.3207 19.4213 -73.6055
LeftForeArm  33.8656 -12.1363 -2.06401
LeftHand  -0.462819 -0.511798 9.2115
RightShoulder  -4.96962e-017 0 -2.36833e-017
RightArm  -35.6366 -19.483 77.0535
RightForeArm  58.7379 12.5834 1.4152
RightHand  -0.386399 -0.617006 -9.38308
LeftUpLeg  -10.7925 8.15318 -1.87012
LeftLeg  11.7081 19.9312 2.75045
LeftFoot  1.9777 -0.0119704 0.855094
LeftToes  -17.7792 1.49739e-006 1.00523e-007
25
root  -45.9745 34.7836 2.6509 -173.602 81.1538 176.034
RightUpLeg  -15.3406 -18.1966 -4.63567
RightLeg  8.64452 0.740612 0.0653774
RightFoot  10.0755 0.0194284 0.272069
RightToes  -31.2468 -0.1526 -0.260537
Spine  -1.25256 1.05302 -1.22321
Spine1  -2.62307 2.15552 -1.83557
HEad  -63.0463 1.98577 -3.99562
LeftShoulder1  -1.94126e-019 -3.10601e-018 -2.51263e-017
LeftArm  -17.9104 19.3103 -74.1835
LeftForeArm  33.019 -12.1219 -2.06384
LeftHand  -0.446724 -0.436608 9.00254
RightShoulder  -4.96962e-017 0 -2.36833e-017
RightArm  -34.8563 -19.5971 76.5781
RightForeArm  57.2832 13.3932 1.32558
RightHand  -0.385165 -0.580956 -9.28649
LeftUpLeg  -10.1977 8.30943 -1.11911
LeftLeg  9.21149 19.4974 1.84948
LeftFoot  3.49522 -0.0369625 1.37298
LeftToes  -19.3129 1.49739e-006 1.00523e-007
26
root  -45.8953 34.7946 3.0992 -171.612 79.9878 177.58
RightUpLeg  -15.7769 -17.3687 -3.70532
RightLeg  9.19533 -1.2914 -0.123462
RightFoot  9.2823 0.044738 -0.0578168
RightToes  -29.5363 -0.140741 -0.24873
Spine  -1.20446 0.644648 -1.00703
Spine1  -2.51613 1.34833 -1.40631
HEad  -65.3774 2.57503 -3.61228
LeftShoulder1  -1.94126e-019 -3.10601e-018 -2.51263e-017
LeftArm  -16.3921 18.95 -74.8182
LeftForeArm  33.0652 -12.3055 -2.08933
LeftHand  -0.452078 -0.802901 8.60062
RightShoulder  -4.96962e-017 0 -2.36833e-017
RightArm  -34.2307 -19.6566 76.0682
RightForeArm  56.0599 14.1937 1.23095
RightHand  -0.389628 -0.709665 -9.63974
LeftUpLeg  -9.73722 8.36445 -0.178601
LeftLeg  6.90021 18.3955 1.01567
LeftFoot  5.02397 -0.0718566 1.79939
LeftToes  -20.9734 1.49739e-006 1.00523e-007
27
root  -45.8141 34.7967 3.5445 -169.966 78.2277 178.809
RightUpLeg  -15.9605 -17.4828 -2.73549
RightLeg  9.46486 -2.84844 -0.286976
RightFoot  8.45343 0.0599775 -0.263036
RightToes  -28.6461 -0.13471 -0.242447
Spine  -1.11132 0.126706 -0.754938
Spine1  -2.31986 0.322278 -0.908444
HEad  -67.3809 2.83784 -3.15362
LeftShoulder1  -1.94126e-019 -3.10601e-018 -2.51263e-017
LeftArm  -14.3782 18.2905 -75.6018
LeftForeArm  34.2104 -12.7015 -2.14083
LeftHand  -0.449801 -0.774699 8.59466
RightShoulder  -4.96962e-017 0 -2.36833e-017
RightArm  -34.4259 -19.6322 75.5762
RightForeArm  55.2294 14.7524 1.17153
RightHand  -0.391938 -0.896419 -10.0808
LeftUpLeg  -9.38144 8.19108 0.787318
LeftLeg  4.63869 16.9424 0.278238
LeftFoot  6.66876 -0.115989 2.15219
LeftToes  -22.5941 1.49739e-006 1.00523e-007
28
root  -45.7382 34.7955 4.00051 -167.892 76.053 -179.522
RightUpLeg  -15.7862 -18.2087 -1.52174
RightLeg  9.0117 -4.05624 -0.376442
RightFoot  7.96857 0.0669611 -0.40649
RightToes  -28.2241 -0.131885 -0.239436
Spine  -1.00982 -0.244787 -0.453533
Spine1  -2.1072 -0.406327 -0.341959
HEad  -68.9109 2.32128 -2.30096
LeftShoulder1  -1.94126e-019 -3.10601e-018 -2.51263e-017
LeftArm  -12.323 17.4206 -76.5471
LeftForeArm  35.8552 -14.0276 -2.34708
LeftHand  -0.466925 -1.14647 8.43992
RightShoulder  -4.96962e-017 0 -2.36833e-017
RightArm  -34.9088 -19.9606 75.0075
RightForeArm  53.9876 15.1745 1.14905
RightHand  -0.382865 -1.10323 -10.2987
LeftUpLeg  -10.0092 8.26606 1.95486
LeftLeg  4.17304 14.8123 0.125017
LeftFoot  7.57861 -0.129492 2.11648
LeftToes  -24.4525 1.49739e-006 1.00523e-007
29
root  -45.6766 34.7922 4.45715 -165.948 73.6968 -177.935
RightUpLeg  -15.4321 -19.4924 -0.0515393
RightLeg  8.02155 -4.97736 -0.375327
RightFoot  7.75951 0.072859 -0.518717
RightToes  -27.6142 -0.127842 -0.235047
Spine  -0.911046 -0.506586 -0.0838
Spine1  -1.90137 -0.925087 0.353084
HEad  -70.0168 1.27048 -1.14291
LeftShoulder1  -1.94126e-019 -3.10601e-018 -2.51263e-017
LeftArm  -10.3625 16.6573 -77.6808
LeftForeArm  35.989 -16.2873 -2.67787
LeftHand  -0.466078 -1.30493 8.23791
RightShoulder  -4.96962e-017 0 -2.36833e-017
RightArm  -35.5206 -20.364 74.2765
RightForeArm  53.2361 15.2238 1.16109
RightHand  -0.377984 -1.08598 -10.127
LeftUpLeg  -11.0896 8.02751 3.2298
LeftLeg  4.47304 12.8276 0.175062
LeftFoot  8.13615 -0.127656 1.95632
LeftToes  -25.9905 1.49739e-006 1.00523e-007
30
root  -45.6326 34.7829 4.90554 -164.755 71.2669 -177.125
RightUpLeg  -15.1471 -21.4498 1.41394
RightLeg  6.86765 -5.22903 -0.288672
RightFoot  7.56836 0.0728581 -0.541958
RightToes  -26.8547 -0.122873 -0.229522
Spine  -0.813095 -0.647048 0.249181
Spine1  -1.69565 -1.20373 0.98165
HEad  -70.952 -0.268851 0.244919
LeftShoulder1  -1.94126e-019 -3.10601e-018 -2.51263e-017
LeftArm  -8.55214 15.9953 -78.841
LeftForeArm  34.7435 -19.3107 -3.08482
LeftHand  -0.446718 -1.36292 7.83852
RightShoulder  -4.96962e-017 0 -2.36833e-017
RightArm  -36.1856 -20.7161 73.5324
RightForeArm  53.4163 14.7884 1.20166
RightHand  -0.373662 -1.06045 -9.9535
LeftUpLeg  -12.2686 7.10335 4.39579
LeftLeg  4.69707 11.5521 0.202684
LeftFoot  8.82964 -0.134092 1.89822
LeftToes  -27.4991 1.49739e-006 1.00523e-007
